<svg width="326" height="70" viewBox="0 0 326 70" fill="none" xmlns="http://www.w3.org/2000/svg">
<path d="M325.863 17.2402L318.023 61.8802H304.343L305.383 55.8002C303.623 57.7736 301.463 59.3736 298.903 60.6002C296.396 61.7736 293.703 62.3602 290.823 62.3602C286.343 62.3602 282.823 61.1069 280.263 58.6002C277.703 56.0402 276.423 52.4936 276.423 47.9602C276.423 46.2536 276.556 44.7069 276.823 43.3202L281.463 17.2402H295.063L290.823 41.4802C290.663 42.3336 290.583 43.1602 290.583 43.9602C290.583 46.2002 291.196 47.9336 292.423 49.1602C293.703 50.3336 295.463 50.9202 297.703 50.9202C300.263 50.9202 302.423 50.1736 304.183 48.6802C305.996 47.1336 307.196 44.9469 307.783 42.1202L312.183 17.2402H325.863Z" fill="black"/>
<g filter="url(#filter0_ddd_8970_25155)">
<path d="M220.682 51.4803L222.602 40.4403L254.202 4.28027H269.563L263.322 39.6403H269.882L267.803 51.4803H261.243L259.403 61.8803H245.643L247.562 51.4803H220.682ZM254.202 19.3203L237.163 39.6403H250.603L254.202 19.3203Z" fill="white"/>
</g>
<path d="M193.753 62.5196C190.233 62.5196 187.06 61.9596 184.233 60.8396C181.46 59.7196 179.273 58.1729 177.673 56.1996C176.073 54.1729 175.273 51.8529 175.273 49.2396C175.273 48.8663 175.326 48.1996 175.433 47.2396H188.633C188.526 48.8929 189.006 50.2263 190.073 51.2396C191.193 52.1996 192.766 52.6796 194.793 52.6796C196.5 52.6796 197.913 52.3596 199.033 51.7196C200.153 51.0796 200.713 50.1729 200.713 48.9996C200.713 47.8796 200.1 46.9996 198.873 46.3596C197.7 45.6663 195.726 44.8396 192.953 43.8796C190.073 42.9196 187.646 41.9863 185.673 41.0796C183.753 40.1196 182.1 38.7596 180.713 36.9996C179.326 35.2396 178.633 33.0263 178.633 30.3596C178.633 27.7463 179.406 25.3996 180.953 23.3196C182.5 21.1863 184.66 19.5329 187.433 18.3596C190.26 17.1863 193.513 16.5996 197.193 16.5996C200.873 16.5996 204.073 17.2129 206.793 18.4396C209.513 19.6129 211.62 21.2663 213.113 23.3996C214.606 25.5329 215.353 27.9329 215.353 30.5996L215.273 31.7996H202.873C202.98 30.1996 202.5 28.9196 201.433 27.9596C200.366 26.9996 198.846 26.5196 196.873 26.5196C195.326 26.5196 194.046 26.8396 193.033 27.4796C192.073 28.1196 191.593 28.9996 191.593 30.1196C191.593 31.2929 192.233 32.2796 193.513 33.0796C194.846 33.8263 196.9 34.6796 199.673 35.6396C202.553 36.5996 204.926 37.5596 206.793 38.5196C208.713 39.4263 210.34 40.7329 211.673 42.4396C213.06 44.0929 213.753 46.1729 213.753 48.6796C213.753 51.5596 212.873 54.0396 211.113 56.1196C209.406 58.1996 207.033 59.7996 203.993 60.9196C201.006 61.9863 197.593 62.5196 193.753 62.5196Z" fill="black"/>
<path d="M153.736 16.5996C159.496 16.5996 164.056 18.1729 167.416 21.3196C170.83 24.4129 172.536 28.6529 172.536 34.0396C172.536 35.7996 172.403 37.3729 172.136 38.7596C171.923 39.9863 171.603 41.2929 171.176 42.6796H140.216C140.163 42.9996 140.136 43.5063 140.136 44.1996C140.136 46.5463 140.776 48.3329 142.056 49.5596C143.336 50.7863 145.043 51.3996 147.176 51.3996C150.59 51.3996 153.203 49.9596 155.016 47.0796H169.576C167.656 51.6129 164.536 55.3196 160.216 58.1996C155.896 61.0796 151.043 62.5196 145.656 62.5196C139.896 62.5196 135.283 60.9196 131.816 57.7196C128.403 54.5196 126.696 50.1729 126.696 44.6796C126.696 43.0263 126.856 41.3196 127.176 39.5596C127.976 34.9196 129.63 30.8663 132.136 27.3996C134.643 23.9329 137.763 21.2663 141.496 19.3996C145.23 17.5329 149.31 16.5996 153.736 16.5996ZM158.696 35.7196C158.803 34.9729 158.856 34.4663 158.856 34.1996C158.856 32.0663 158.19 30.4396 156.856 29.3196C155.523 28.1463 153.763 27.5596 151.576 27.5596C149.23 27.5596 147.15 28.2796 145.336 29.7196C143.576 31.1063 142.296 33.1063 141.496 35.7196H158.696Z" fill="black"/>
<path d="M126.463 2.67969L115.982 61.8797H102.302L112.782 2.67969H126.463Z" fill="black"/>
<path d="M49.2857 39.4796C50.0857 34.8929 51.659 30.8663 54.0057 27.3996C56.3523 23.9329 59.179 21.2663 62.4857 19.3996C65.7923 17.5329 69.2857 16.5996 72.9657 16.5996C76.1123 16.5996 78.7523 17.2396 80.8857 18.5196C83.019 19.7996 84.5657 21.4796 85.5257 23.5596L86.6457 17.2396H100.326L92.4057 61.8796H78.7257L79.9257 55.5596C78.219 57.6396 76.059 59.3196 73.4457 60.5996C70.8323 61.8796 67.9523 62.5196 64.8057 62.5196C61.659 62.5196 58.859 61.7996 56.4057 60.3596C54.0057 58.9196 52.139 56.8929 50.8057 54.2796C49.4723 51.6129 48.8057 48.4929 48.8057 44.9196C48.8057 43.2129 48.9657 41.3996 49.2857 39.4796ZM82.7257 39.5596C82.8857 38.5996 82.9657 37.7196 82.9657 36.9196C82.9657 34.3063 82.1923 32.2529 80.6457 30.7596C79.1523 29.2663 77.2323 28.5196 74.8857 28.5196C72.1657 28.5196 69.6857 29.5063 67.4457 31.4796C65.2057 33.3996 63.7923 36.0663 63.2057 39.4796C63.0457 40.4396 62.9657 41.3196 62.9657 42.1196C62.9657 44.7329 63.7123 46.8129 65.2057 48.3596C66.7523 49.8529 68.6723 50.5996 70.9657 50.5996C73.6857 50.5996 76.1657 49.6129 78.4057 47.6396C80.6457 45.6663 82.0857 42.9729 82.7257 39.5596Z" fill="black"/>
<path d="M20.56 62.4399C14.48 62.4399 9.52 61.1333 5.68 58.5199C1.89333 55.8533 0 52.0933 0 47.2399C0 46.7599 0.0533334 46.0399 0.16 45.0799H14.4C14.24 47.1066 14.72 48.7066 15.84 49.8799C16.96 51.0533 18.6667 51.6399 20.96 51.6399C23.04 51.6399 24.6667 51.1866 25.84 50.2799C27.0667 49.3733 27.68 48.0933 27.68 46.4399C27.68 44.7333 26.9067 43.3466 25.36 42.2799C23.8667 41.2133 21.52 40.0132 18.32 38.6799C15.2267 37.3999 12.6933 36.1999 10.72 35.0799C8.8 33.9066 7.12 32.3333 5.68 30.3599C4.24 28.3866 3.52 25.9066 3.52 22.9199C3.46667 19.2399 4.37333 16.0399 6.24 13.3199C8.10667 10.5999 10.6933 8.51992 14 7.07992C17.3067 5.63992 21.0933 4.91992 25.36 4.91992C29.2 4.91992 32.6133 5.53325 35.6 6.75992C38.5867 7.93325 40.9067 9.66658 42.56 11.9599C44.2133 14.1999 45.04 16.8666 45.04 19.9599C45.04 20.7599 45.0133 21.3466 44.96 21.7199H30.4C30.4533 21.5066 30.48 21.1866 30.48 20.7599C30.48 19.2666 29.9467 18.0666 28.88 17.1599C27.8667 16.1999 26.4533 15.7199 24.64 15.7199C22.72 15.7199 21.1467 16.1999 19.92 17.1599C18.7467 18.0666 18.16 19.3199 18.16 20.9199C18.16 22.5199 18.9067 23.8799 20.4 24.9999C21.8933 26.0666 24.2133 27.3199 27.36 28.7599C30.5067 30.1999 33.0667 31.5333 35.04 32.7599C37.0667 33.9866 38.8 35.6399 40.24 37.7199C41.68 39.7466 42.4 42.2533 42.4 45.2399C42.4 48.5466 41.52 51.5066 39.76 54.1199C38 56.7333 35.4667 58.7866 32.16 60.2799C28.8533 61.7199 24.9867 62.4399 20.56 62.4399Z" fill="black"/>
<defs>
<filter id="filter0_ddd_8970_25155" x="214.682" y="0.280273" width="61.2" height="69.5996" filterUnits="userSpaceOnUse" color-interpolation-filters="sRGB">
<feFlood flood-opacity="0" result="BackgroundImageFix"/>
<feColorMatrix in="SourceAlpha" type="matrix" values="0 0 0 0 0 0 0 0 0 0 0 0 0 0 0 0 0 0 127 0" result="hardAlpha"/>
<feOffset dx="1" dy="1"/>
<feGaussianBlur stdDeviation="0.5"/>
<feComposite in2="hardAlpha" operator="out"/>
<feColorMatrix type="matrix" values="0 0 0 0 0 0 0 0 0 0 0 0 0 0 0 0 0 0 0.5 0"/>
<feBlend mode="normal" in2="BackgroundImageFix" result="effect1_dropShadow_8970_25155"/>
<feColorMatrix in="SourceAlpha" type="matrix" values="0 0 0 0 0 0 0 0 0 0 0 0 0 0 0 0 0 0 127 0" result="hardAlpha"/>
<feOffset dy="4"/>
<feGaussianBlur stdDeviation="2"/>
<feComposite in2="hardAlpha" operator="out"/>
<feColorMatrix type="matrix" values="0 0 0 0 0 0 0 0 0 0 0 0 0 0 0 0 0 0 0.25 0"/>
<feBlend mode="normal" in2="effect1_dropShadow_8970_25155" result="effect2_dropShadow_8970_25155"/>
<feColorMatrix in="SourceAlpha" type="matrix" values="0 0 0 0 0 0 0 0 0 0 0 0 0 0 0 0 0 0 127 0" result="hardAlpha"/>
<feOffset dy="2"/>
<feGaussianBlur stdDeviation="3"/>
<feComposite in2="hardAlpha" operator="out"/>
<feColorMatrix type="matrix" values="0 0 0 0 0 0 0 0 0 0 0 0 0 0 0 0 0 0 0.2 0"/>
<feBlend mode="normal" in2="effect2_dropShadow_8970_25155" result="effect3_dropShadow_8970_25155"/>
<feBlend mode="normal" in="SourceGraphic" in2="effect3_dropShadow_8970_25155" result="shape"/>
</filter>
</defs>
</svg>
