<svg xmlns="http://www.w3.org/2000/svg" width="33" height="34" viewBox="0 0 33 34">
    <g fill="none" fill-rule="evenodd">
        <g>
            <g transform="translate(-66 -133) translate(67 134)">
                <g fill="#121F26" stroke="#121F26" stroke-width=".3">
                    <path d="M9.674 7.381c.001-.024.005-.043.009-.058.248-5.19 4.116-5.75 5.768-5.75h.088c2.056.043 5.536.851 5.77 5.754l.006.044c.006.048.547 4.9-1.862 7.497-.96 1.039-2.243 1.551-3.92 1.565h-.075c-1.682-.016-2.962-.529-3.914-1.565-2.354-2.53-1.892-7.28-1.87-7.487M15.379 18h.233c2.098-.034 3.802-.737 5.06-2.093 2.773-2.996 2.326-8.102 2.266-8.674-.181-3.7-1.994-5.447-3.481-6.262C18.33.35 17.027.026 15.58 0h-.122c-.802 0-2.372.124-3.873.942-1.509.82-3.346 2.576-3.525 6.282-.06.58-.494 5.701 2.267 8.683 1.248 1.353 2.947 2.056 5.052 2.093"/>
                    <path d="M29.998 25.804v-.022l-.003-.061c-.003-.046-.005-.072-.005-.098-.044-1.23-.144-4.12-3.228-5.03l.007-.111-.065.095c-3.382-.748-6.171-2.427-6.197-2.443-.367-.224-.88-.143-1.14.177-.259.319-.168.762.202.99.03.018 2.949 1.81 6.689 2.644 1.835.565 2.044 2.218 2.097 3.723 0 .057 0 .1.007.147.008.64-.039 1.506-.159 2.024l-.01.049-.055.044c-1.28.63-5.948 2.652-13.134 2.652-7.143 0-11.849-2.027-13.122-2.648l-.051-.025-.032-.058c-.126-.557-.177-1.457-.16-2.03 0-.023 0-.05.003-.08.002-.033.004-.053.004-.075.052-1.51.26-3.166 2.082-3.725 3.248-.724 5.926-2.195 6.67-2.629l.036-.022c.178-.108.298-.272.335-.46.039-.185-.01-.373-.136-.528-.128-.158-.317-.261-.533-.292-.045-.008-.09-.012-.141-.012-.168 0-.331.045-.468.13-.119.071-2.897 1.718-6.193 2.44l-.038.01-.032.007C.154 21.503.052 24.382.01 25.611c0 .067-.001.127-.008.183-.004.202-.029 1.982.365 2.842.062.138.17.253.314.33C.737 28.998 5.976 32 15.011 32c8.534 0 13.757-2.721 14.325-3.031.147-.082.26-.2.319-.332.373-.861.347-2.633.343-2.833"/>
                </g>
                <path fill="#FFDB00" fill-rule="nonzero" d="M25.5 20c3.585 0 6.5 2.916 6.5 6.5S29.084 33 25.5 33 19 30.084 19 26.5s2.916-6.5 6.5-6.5z"/>
                <rect width="2" height="7" x="24.5" y="23" fill="#11222B" rx="1"/>
                <path fill="#11222B" d="M25.5 23c.552 0 1 .448 1 1v5c0 .552-.448 1-1 1s-1-.448-1-1v-5c0-.552.448-1 1-1z" transform="rotate(90 25.5 26.5)"/>
            </g>
        </g>
    </g>
</svg>
